<?xml version="1.0" encoding="iso-8859-1"?>
<!-- Generator: Adobe Illustrator 19.0.0, SVG Export Plug-In . SVG Version: 6.00 Build 0)  -->
<svg version="1.1" id="Layer_1" xmlns="http://www.w3.org/2000/svg" xmlns:xlink="http://www.w3.org/1999/xlink" x="0px" y="0px"
	 viewBox="0 0 512 512" style="enable-background:new 0 0 512 512;" xml:space="preserve">
<circle style="fill:#E9EFF4;" cx="256" cy="256" r="256"/>
<path style="fill:#CFDBE6;" d="M502.169,326.489L350.78,174.582l-5.417,11.495l-66.61-67.256l-59.816,165.624l-93.336,71.594
	L280.4,510.836C386.479,500.803,473.71,426.055,502.169,326.489z"/>
<path style="fill:#F1543F;" d="M319.397,218.779c13.583-4.765,27.734-3.274,39.44,2.877c4.01,2.107,8.554-1.758,7.209-6.084
	l-10.076-32.418c-3.367-10.833-14.879-16.886-25.712-13.517l-40.617,12.626c7.418-12.402,9.413-27.972,3.893-42.78
	c-8.67-23.259-33.887-36.631-58.001-30.744c-27.996,6.835-44.035,35.697-35.612,62.797c4.349,13.993,14.343,24.669,26.696,30.318
	l-40.617,12.626c-10.833,3.367-16.886,14.879-13.517,25.712l11.452,36.842c-11.717-6.563-26.06-8.383-39.874-3.774
	c-24.179,8.07-38.462,33.833-32.413,58.597c6.837,27.993,35.697,44.029,62.795,35.606c13.503-4.198,23.912-13.653,29.701-25.412
	l13.181,42.401c3.367,10.833,14.879,16.886,25.712,13.517l144.258-44.842c10.833-3.367,16.886-14.879,13.517-25.712l-11.809-37.988
	c-1.357-4.367-7.287-4.887-9.421-0.845c-5.899,11.173-16.048,20.101-29.067,24.148c-27.102,8.425-55.965-7.618-62.798-35.618
	C281.745,252.637,295.624,227.118,319.397,218.779z"/>
<path style="fill:#D83E20;" d="M199.918,171.536c4.349,13.993,14.343,24.669,26.696,30.318l-40.617,12.626
	c-10.833,3.367-16.886,14.879-13.517,25.712l11.452,36.842c-11.717-6.561-26.06-8.383-39.874-3.774
	c-24.18,8.07-38.462,33.833-32.413,58.597c6.837,27.993,35.697,44.029,62.795,35.606c13.503-4.198,23.912-13.653,29.701-25.412
	l13.181,42.401c3.367,10.833,14.879,16.886,25.712,13.517l65.527-20.37L235.196,108.83
	C207.408,115.814,191.528,144.544,199.918,171.536z"/>
<g>
</g>
<g>
</g>
<g>
</g>
<g>
</g>
<g>
</g>
<g>
</g>
<g>
</g>
<g>
</g>
<g>
</g>
<g>
</g>
<g>
</g>
<g>
</g>
<g>
</g>
<g>
</g>
<g>
</g>
</svg>
